<?xml version="1.0" encoding="UTF-8"?>
<svg width="40px" height="40px" viewBox="0 0 40 40" version="1.1" xmlns="http://www.w3.org/2000/svg" xmlns:xlink="http://www.w3.org/1999/xlink">
    <title>C92167A6-7D6D-4D45-812A-6EA4CBD3B59C</title>
    <defs>
        <circle id="path-1" cx="20" cy="20" r="15.2380952"></circle>
        <filter x="-19.7%" y="-19.7%" width="139.4%" height="139.4%" filterUnits="objectBoundingBox" id="filter-2">
            <feOffset dx="0" dy="0" in="SourceAlpha" result="shadowOffsetOuter1"></feOffset>
            <feGaussianBlur stdDeviation="2" in="shadowOffsetOuter1" result="shadowBlurOuter1"></feGaussianBlur>
            <feColorMatrix values="0 0 0 0 0   0 0 0 0 0   0 0 0 0 0  0 0 0 0.5 0" type="matrix" in="shadowBlurOuter1"></feColorMatrix>
        </filter>
    </defs>
    <g id="Page-1" stroke="none" stroke-width="1" fill="none" fill-rule="evenodd">
        <g id="Page" transform="translate(-1464.000000, -879.000000)">
            <g id="Button" transform="translate(1464.000000, 879.000000)">
                <g id="Group">
                    <g>
                        <path d="M18.0952381,40 C17.5692526,40 17.1428571,39.5736045 17.1428571,39.047619 C17.1428571,38.5216336 17.5692526,38.0952381 18.0952381,38.0952381 L19.047,38.095 L19.047,23.553 L11.776,36.147 L12.6019532,36.6233168 C13.0574699,36.8863096 13.2135415,37.4687766 12.9505488,37.9242934 C12.687556,38.3798102 12.105089,38.5358818 11.6495722,38.272889 L8.3504278,36.3681271 C7.89491102,36.1051344 7.73883944,35.5226673 8.00183218,35.0671505 C8.26482492,34.6116338 8.84729197,34.4555622 9.30280875,34.7185549 L10.127,35.195 L17.398,22.601 L4.804,29.872 L5.28144507,30.6971912 C5.54443781,31.152708 5.38836624,31.7351751 4.93284945,31.9981678 C4.47733267,32.2611606 3.89486561,32.105089 3.63187288,31.6495722 L1.72711097,28.3504278 C1.46411823,27.894911 1.62018981,27.312444 2.07570659,27.0494512 C2.53122338,26.7864585 3.11369043,26.9425301 3.37668317,27.3980468 L3.852,28.223 L16.446,20.952 L1.904,20.952 L1.9047619,21.9047619 C1.9047619,22.4307474 1.47836643,22.8571429 0.952380952,22.8571429 C0.426395476,22.8571429 2.22044605e-16,22.4307474 -8.8817842e-16,21.9047619 L-2.22044605e-16,18.0952381 C-4.4408921e-16,17.5692526 0.426395476,17.1428571 0.952380952,17.1428571 C1.47836643,17.1428571 1.9047619,17.5692526 1.9047619,18.0952381 L1.904,19.047 L16.446,19.047 L3.852,11.776 L3.37668317,12.6019532 C3.11369043,13.0574699 2.53122338,13.2135415 2.07570659,12.9505488 C1.62018981,12.687556 1.46411823,12.105089 1.72711097,11.6495722 L3.63187288,8.3504278 C3.89486561,7.89491102 4.47733267,7.73883944 4.93284945,8.00183218 C5.38836624,8.26482492 5.54443781,8.84729197 5.28144507,9.30280875 L4.804,10.127 L17.398,17.398 L10.127,4.804 L9.30280875,5.28144507 C8.84729197,5.54443781 8.26482492,5.38836624 8.00183218,4.93284945 C7.73883944,4.47733267 7.89491102,3.89486561 8.3504278,3.63187288 L11.6495722,1.72711097 C12.105089,1.46411823 12.687556,1.62018981 12.9505488,2.07570659 C13.2135415,2.53122338 13.0574699,3.11369043 12.6019532,3.37668317 L11.776,3.852 L19.047,16.446 L19.047,1.904 L18.0952381,1.9047619 C17.5692526,1.9047619 17.1428571,1.47836643 17.1428571,0.952380952 C17.1428571,0.426395476 17.5692526,9.66219644e-17 18.0952381,0 L21.9047619,0 C22.4307474,-2.07644267e-16 22.8571429,0.426395476 22.8571429,0.952380952 C22.8571429,1.47836643 22.4307474,1.9047619 21.9047619,1.9047619 L20.952,1.904 L20.952,16.446 L28.223,3.852 L27.3980468,3.37668317 C26.9425301,3.11369043 26.7864585,2.53122338 27.0494512,2.07570659 C27.312444,1.62018981 27.894911,1.46411823 28.3504278,1.72711097 L31.6495722,3.63187288 C32.105089,3.89486561 32.2611606,4.47733267 31.9981678,4.93284945 C31.7351751,5.38836624 31.152708,5.54443781 30.6971912,5.28144507 L29.872,4.804 L22.601,17.398 L35.195,10.127 L34.7185549,9.30280875 C34.4555622,8.84729197 34.6116338,8.26482492 35.0671505,8.00183218 C35.5226673,7.73883944 36.1051344,7.89491102 36.3681271,8.3504278 L38.272889,11.6495722 C38.5358818,12.105089 38.3798102,12.687556 37.9242934,12.9505488 C37.4687766,13.2135415 36.8863096,13.0574699 36.6233168,12.6019532 L36.147,11.776 L23.553,19.047 L38.095,19.047 L38.0952381,18.0952381 C38.0952381,17.5692526 38.5216336,17.1428571 39.047619,17.1428571 C39.5736045,17.1428571 40,17.5692526 40,18.0952381 L40,21.9047619 C40,22.4307474 39.5736045,22.8571429 39.047619,22.8571429 C38.5216336,22.8571429 38.0952381,22.4307474 38.0952381,21.9047619 L38.095,20.952 L23.553,20.952 L36.147,28.223 L36.6233168,27.3980468 C36.8863096,26.9425301 37.4687766,26.7864585 37.9242934,27.0494512 C38.3798102,27.312444 38.5358818,27.894911 38.272889,28.3504278 L37.7966986,29.1752139 L36.8443176,30.8247861 L36.3681271,31.6495722 C36.1051344,32.105089 35.5226673,32.2611606 35.0671505,31.9981678 C34.6116338,31.7351751 34.4555622,31.152708 34.7185549,30.6971912 L35.195,29.872 L22.601,22.601 L29.872,35.195 L30.6971912,34.7185549 C31.152708,34.4555622 31.7351751,34.6116338 31.9981678,35.0671505 C32.2611606,35.5226673 32.105089,36.1051344 31.6495722,36.3681271 L30.8247861,36.8443176 L29.1752139,37.7966986 L28.3504278,38.272889 C27.894911,38.5358818 27.312444,38.3798102 27.0494512,37.9242934 C26.7864585,37.4687766 26.9425301,36.8863096 27.3980468,36.6233168 L28.223,36.147 L20.952,23.553 L20.952,38.095 L21.9047619,38.0952381 C22.4307474,38.0952381 22.8571429,38.5216336 22.8571429,39.047619 C22.8571429,39.5736045 22.4307474,40 21.9047619,40 L18.0952381,40 Z" id="Combined-Shape" fill="#137E3F"></path>
                        <g id="Oval">
                            <use fill="black" fill-opacity="1" filter="url(#filter-2)" xlink:href="#path-1"></use>
                            <use fill="#137E3F" fill-rule="evenodd" xlink:href="#path-1"></use>
                        </g>
                        <path d="M13.6843821,8.17120695 L24.3012321,8.17120695 C24.8535169,8.17120695 25.3012321,8.6189222 25.3012321,9.17120695 L25.3012321,14.580238 C25.3012321,15.1325228 24.8535169,15.580238 24.3012321,15.580238 L12.6843821,15.580238 L11.5802863,15.580238 C11.3466999,15.580238 11.1573406,15.3908788 11.1573406,15.1572923 C11.1573406,15.0372217 11.208375,14.92281 11.297716,14.8425908 L11.5802863,14.5888711 C12.2829813,13.9579217 12.6843821,13.0580382 12.6843821,12.1136457 L12.6843821,9.17120695 C12.6843821,8.6189222 13.1320974,8.17120695 13.6843821,8.17120695 Z" id="Rectangle" fill="#9CEBBD"></path>
                        <path d="M21.096903,17.7814739 L30.2359675,17.7814739 C30.7882523,17.7814739 31.2359675,18.2291891 31.2359675,18.7814739 L31.2359675,23.2734595 C31.2359675,23.8257442 30.7882523,24.2734595 30.2359675,24.2734595 L20.096903,24.2734595 L18.9928071,24.2734595 C18.7592207,24.2734595 18.5698615,24.0841002 18.5698615,23.8505138 C18.5698615,23.7304432 18.6208958,23.6160315 18.7102368,23.5358122 L18.9928071,23.2820925 C19.6955021,22.6511432 20.096903,21.7512597 20.096903,20.8068671 L20.096903,18.7814739 C20.096903,18.2291891 20.5446182,17.7814739 21.096903,17.7814739 Z" id="Rectangle-Copy-6" fill="#67CC91" transform="translate(24.562339, 21.027467) scale(-1, 1) translate(-24.562339, -21.027467) "></path>
                        <path d="M16.1284714,26.4472232 L23.6063102,26.4472232 C24.1585949,26.4472232 24.6063102,26.8949385 24.6063102,27.4472232 L24.6063102,31.2062713 C24.6063102,31.7585561 24.1585949,32.2062713 23.6063102,32.2062713 L15.1284714,32.2062713 L14.0243756,32.2062713 C13.7907891,32.2062713 13.6014299,32.0169121 13.6014299,31.7833256 C13.6014299,31.663255 13.6524642,31.5488433 13.7418053,31.4686241 L14.0243756,31.2149044 C14.7270706,30.583955 15.1284714,29.6840715 15.1284714,28.739679 L15.1284714,27.4472232 C15.1284714,26.8949385 15.5761867,26.4472232 16.1284714,26.4472232 Z" id="Rectangle-Copy-7" fill="#22C766"></path>
                    </g>
                </g>
            </g>
        </g>
    </g>
</svg>